<svg width="32" height="28" viewBox="0 0 32 28" fill="none" xmlns="http://www.w3.org/2000/svg">
<path d="M29.7398 10.1758H31.9999V12.8113H29.7398V10.1758Z" fill="black"/>
<path d="M28.4121 11.0159V12.8997L27.4051 12.944C26.4006 12.9852 25.7143 12.7789 25.3463 12.3249C25.1076 12.036 24.9883 11.5908 24.9883 10.9894V5.05505H23.8545V3.2597H24.9883V0.571106H27.0918V3.2597H28.4121V5.05505H27.0918V10.1492C27.0918 10.5443 27.1341 10.7919 27.2186 10.8921C27.3031 10.9865 27.5617 11.0336 27.9944 11.0336C28.059 11.0336 28.1261 11.0336 28.1958 11.0336C28.2703 11.0277 28.3424 11.0218 28.4121 11.0159Z" fill="black"/>
<path d="M22.8252 5.49725C21.9698 5.49725 21.3955 5.82743 21.1021 6.48778C20.938 6.85924 20.8559 7.43115 20.8559 8.20353V12.8113H18.7151V3.17126H20.7441V4.85163C21.0723 4.20896 21.3582 3.76971 21.6019 3.53387C21.9997 3.13883 22.5169 2.94131 23.1534 2.94131C23.1932 2.94131 23.2255 2.94426 23.2503 2.95016C23.2802 2.95016 23.3423 2.95311 23.4368 2.959V5.54147C23.3026 5.52378 23.1832 5.51199 23.0788 5.50609C22.9744 5.5002 22.8898 5.49725 22.8252 5.49725Z" fill="black"/>
<path d="M16.179 4.39175C16.8652 5.41176 17.2084 6.6175 17.2084 8.00897C17.2084 9.42402 16.8652 10.6357 16.179 11.6439C15.4927 12.6462 14.4509 13.1474 13.0536 13.1474C11.6562 13.1474 10.6144 12.6462 9.92817 11.6439C9.24193 10.6357 8.8988 9.42402 8.8988 8.00897C8.8988 6.6175 9.24193 5.41176 9.92817 4.39175C10.6144 3.37173 11.6562 2.86172 13.0536 2.86172C14.4509 2.86172 15.4927 3.37173 16.179 4.39175ZM13.0461 4.99314C12.4245 4.99314 11.9446 5.25552 11.6065 5.78027C11.2733 6.29912 11.1067 7.04202 11.1067 8.00897C11.1067 8.97592 11.2733 9.72177 11.6065 10.2465C11.9446 10.7713 12.4245 11.0336 13.0461 11.0336C13.6677 11.0336 14.1451 10.7713 14.4783 10.2465C14.8115 9.72177 14.9781 8.97592 14.9781 8.00897C14.9781 7.04202 14.8115 6.29912 14.4783 5.78027C14.1451 5.25552 13.6677 4.99314 13.0461 4.99314Z" fill="black"/>
<path d="M6.86993 4.20603C7.52634 5.03737 7.85455 6.25785 7.85455 7.86747C7.85455 9.56553 7.53131 10.8597 6.88485 11.75C6.24336 12.6403 5.41538 13.0855 4.40093 13.0855C3.75447 13.0855 3.21741 12.8938 2.78974 12.5106C2.55602 12.2983 2.32727 11.9888 2.1035 11.582V16.6054H0V3.17127H2.03636V4.59517C2.26511 4.17655 2.50878 3.84637 2.76737 3.60463C3.23978 3.17422 3.80171 2.95901 4.45315 2.95901C5.40295 2.95901 6.20855 3.37469 6.86993 4.20603ZM5.66154 7.99129C5.66154 7.24839 5.51733 6.59098 5.2289 6.01906C4.94545 5.44715 4.48298 5.16119 3.84149 5.16119C3.07071 5.16119 2.5411 5.59455 2.25268 6.46126C2.1035 6.92116 2.0289 7.50486 2.0289 8.21239C2.0289 9.33264 2.28003 10.1198 2.78228 10.5738C3.08065 10.8391 3.43372 10.9717 3.84149 10.9717C4.43326 10.9717 4.88329 10.7005 5.19161 10.1581C5.5049 9.61565 5.66154 8.89338 5.66154 7.99129Z" fill="black"/>
<path d="M31.5147 20.1555C31.9878 21.0194 32.1073 22.0406 31.873 23.2191C31.6341 24.4176 31.1048 25.4438 30.285 26.2977C29.4699 27.1467 28.4042 27.5711 27.0879 27.5711C25.7716 27.5711 24.8745 27.1467 24.3967 26.2977C23.9236 25.4438 23.8064 24.4176 24.0453 23.2191C24.2796 22.0406 24.8066 21.0194 25.6263 20.1555C26.4461 19.2916 27.5142 18.8596 28.8305 18.8596C30.1468 18.8596 31.0416 19.2916 31.5147 20.1555ZM28.4581 20.6649C27.8725 20.6649 27.3783 20.8871 26.9755 21.3315C26.5726 21.771 26.2892 22.4002 26.1252 23.2191C25.9613 24.0381 25.9917 24.6698 26.2166 25.1142C26.4461 25.5587 26.8537 25.7809 27.4392 25.7809C28.0248 25.7809 28.519 25.5587 28.9218 25.1142C29.3247 24.6698 29.6081 24.0381 29.7721 23.2191C29.936 22.4002 29.9032 21.771 29.6737 21.3315C29.4488 20.8871 29.0436 20.6649 28.4581 20.6649Z" fill="black"/>
<path d="M21.3542 19.1218H23.3849L21.7617 27.2865H19.731L21.3542 19.1218ZM21.9444 16.178H23.9751L23.5816 18.148H21.5509L21.9444 16.178Z" fill="black"/>
<path d="M15.7399 27.2865L17.9392 16.2455H19.9418L17.7425 27.2865H15.7399Z" fill="black"/>
<path d="M14.7069 20.1555C15.1801 21.0194 15.2995 22.0406 15.0653 23.2191C14.8264 24.4176 14.2971 25.4438 13.4773 26.2977C12.6622 27.1467 11.5965 27.5711 10.2802 27.5711C8.96382 27.5711 8.06676 27.1467 7.58894 26.2977C7.11581 25.4438 6.9987 24.4176 7.23761 23.2191C7.47183 22.0406 7.99883 21.0194 8.81861 20.1555C9.63838 19.2916 10.7064 18.8596 12.0228 18.8596C13.3391 18.8596 14.2338 19.2916 14.7069 20.1555ZM11.6503 20.6649C11.0648 20.6649 10.5706 20.8871 10.1677 21.3315C9.76486 21.771 9.48146 22.4002 9.3175 23.2191C9.15354 24.0381 9.18399 24.6698 9.40885 25.1142C9.63838 25.5587 10.0459 25.7809 10.6315 25.7809C11.217 25.7809 11.7112 25.5587 12.1141 25.1142C12.517 24.6698 12.8004 24.0381 12.9643 23.2191C13.1283 22.4002 13.0955 21.771 12.866 21.3315C12.6411 20.8871 12.2359 20.6649 11.6503 20.6649Z" fill="black"/>
<path d="M7.35707 19.1967L7.05493 20.7023H5.74094L4.43399 27.2865H2.43842L3.74537 20.7023H2.62814L2.93028 19.1967H4.02644L4.13184 18.6724C4.30516 17.7985 4.56281 17.1967 4.90477 16.8672C5.29358 16.3778 6.04309 16.1331 7.1533 16.1331C7.27978 16.1331 7.39221 16.1381 7.49058 16.1481C7.59364 16.1531 7.73417 16.163 7.91218 16.178L7.56085 17.9158C7.45311 17.9008 7.26807 17.8909 7.00574 17.8859C6.74341 17.8759 6.54667 17.9383 6.4155 18.0731C6.28902 18.203 6.21173 18.3478 6.18362 18.5076C6.15083 18.6674 6.10399 18.8971 6.04309 19.1967H7.35707Z" fill="black"/>
</svg>
