<svg xmlns="http://www.w3.org/2000/svg">
<style> :root svg:not(:target) { display: none } </style>

<svg width="143" height="10" viewBox="0 0 143 10" fill="none" id="arrow">
<path d="M142.408 5.40825C142.634 5.18278 142.634 4.81722 142.408 4.59175L138.734 0.917517C138.509 0.692048 138.143 0.692048 137.918 0.917517C137.692 1.14299 137.692 1.50854 137.918 1.73401L141.184 5L137.918 8.26599C137.692 8.49146 137.692 8.85701 137.918 9.08248C138.143 9.30795 138.509 9.30795 138.734 9.08248L142.408 5.40825ZM0 5.57735H142V4.42265H0V5.57735Z" fill="black"/>
</svg>

<svg width="41" height="41" viewBox="0 0 41 41" fill="none" id="phone">
<circle cx="20.25" cy="20.25" r="19.25" stroke="black" stroke-width="2"/>
<path fill-rule="evenodd" clip-rule="evenodd" d="M25.043 22.402C24.7841 22.2726 23.5144 21.6479 23.277 21.5613C23.0406 21.4757 22.8673 21.4319 22.6951 21.6907C22.5229 21.9496 22.0276 22.5315 21.8768 22.7037C21.726 22.8759 21.5752 22.8973 21.3174 22.7679C21.0585 22.6384 20.2264 22.3657 19.2391 21.4854C18.4711 20.8008 17.9523 19.9547 17.8015 19.6958C17.6507 19.437 17.7854 19.2979 17.9149 19.1685C18.0314 19.053 18.1737 18.8669 18.3021 18.716C18.4315 18.5652 18.4743 18.4572 18.5599 18.285C18.6465 18.1128 18.6026 17.9619 18.5385 17.8325C18.4743 17.7031 17.9576 16.4313 17.7416 15.9146C17.5319 15.4108 17.3191 15.4793 17.1597 15.4707C17.0089 15.4633 16.8367 15.4622 16.6644 15.4622C16.4922 15.4622 16.212 15.5264 15.9756 15.7852C15.7392 16.0441 15.0707 16.6687 15.0707 17.9405C15.0707 19.2113 15.997 20.4403 16.1253 20.6125C16.2548 20.7847 17.9469 23.3936 20.5387 24.5135C21.1559 24.7799 21.6362 24.9382 22.0116 25.058C22.6309 25.2548 23.1936 25.227 23.6385 25.1607C24.1348 25.0869 25.167 24.536 25.3831 23.9316C25.5981 23.3284 25.5981 22.8117 25.5339 22.7037C25.4698 22.5956 25.2975 22.5315 25.0387 22.402H25.043ZM20.328 28.837H20.3248C18.7823 28.837 17.2699 28.422 15.9499 27.639L15.6365 27.4529L12.3837 28.3065L13.2523 25.1361L13.048 24.8109C12.188 23.4428 11.7334 21.8619 11.7344 20.2381C11.7366 15.5007 15.5916 11.6468 20.3333 11.6468C22.6288 11.6478 24.7873 12.5431 26.41 14.1668C28.0326 15.7916 28.9258 17.9502 28.9247 20.2456C28.9226 24.9831 25.0665 28.8381 20.329 28.8381L20.328 28.837ZM27.6433 12.9325C25.6912 10.9782 23.0941 9.90216 20.328 9.90002C14.6278 9.90002 9.98878 14.5369 9.98664 20.2371C9.98557 22.0587 10.4626 23.8375 11.3665 25.4056L9.9 30.7624L15.3819 29.3248C16.8923 30.1484 18.593 30.5827 20.3237 30.5838H20.328C26.027 30.5838 30.6661 25.9458 30.6693 20.2456C30.6704 17.4838 29.5954 14.8856 27.6433 12.9325Z" fill="black"/>
</svg>

<svg fill="none" viewBox="0 0 41 41" id="tg">
    <circle cx="20.25" cy="20.25" r="19.25" stroke="black" stroke-width="2"></circle>
    <path fill-rule="evenodd" clip-rule="evenodd" d="M28.8031 12.954C28.7322 12.7446 28.6477 12.6894 28.5149 12.6365C28.2255 12.5295 27.7335 12.6916 27.7335 12.6916C27.7335 12.6916 10.348 18.9424 9.355 19.6337C9.14108 19.7823 9.06903 19.8701 9.03413 19.9726C8.86187 20.4635 9.39778 20.6808 9.39778 20.6808L13.8787 22.141C13.8787 22.141 14.0453 22.1658 14.105 22.1275C15.125 21.4824 24.3616 15.6515 24.8941 15.4556C24.9786 15.4309 25.0405 15.4579 25.0236 15.5164C24.8108 16.2663 16.7879 23.3952 16.7879 23.3952C16.7879 23.3952 16.7575 23.4335 16.7384 23.4774L16.7283 23.4718L16.3106 27.9167C16.3106 27.9167 16.1349 29.2778 17.4972 27.9167C18.4576 26.9552 19.3875 26.1502 19.8525 25.7618C21.3938 26.8257 23.0511 28.0022 23.7671 28.6169C24.1263 28.9254 24.4269 28.975 24.6746 28.9671C25.3535 28.9423 25.5437 28.1959 25.5437 28.1959C25.5437 28.1959 28.7119 15.4444 28.8178 13.7353C28.8279 13.5676 28.8425 13.4629 28.8436 13.3469C28.8459 13.187 28.8301 13.0272 28.8042 12.9528L28.8031 12.954Z" fill="black"></path>
  </svg>

<svg fill="none" viewBox="0 0 41 41" id="whatsapp">
    <path d="M16.1603 14.1771C15.9513 14.1465 15.7382 14.1885 15.5564 14.2959H15.5409C15.1188 14.5434 14.7385 14.8561 14.4143 15.2225C14.1448 15.534 13.9986 15.8493 13.9602 16.1527C13.9373 16.3336 13.9528 16.5145 14.0067 16.6872L14.0259 16.699C14.3294 17.5909 14.7258 18.4488 15.2101 19.2564C15.834 20.3911 16.6018 21.4405 17.4944 22.3787L17.521 22.417L17.5631 22.4481L17.5896 22.479L17.6206 22.5057C18.5622 23.4008 19.614 24.1722 20.751 24.8009C22.0503 25.5082 22.8389 25.8426 23.312 25.9815V25.9888C23.4509 26.031 23.5771 26.0501 23.7041 26.0501C24.1074 26.0205 24.4892 25.8568 24.7886 25.585C25.1533 25.2607 25.4626 24.8789 25.7041 24.4547V24.4473C25.9307 24.0206 25.854 23.6167 25.5269 23.3436C24.8718 22.7711 24.1637 22.2626 23.4117 21.8249C22.9082 21.5518 22.3966 21.7172 22.1892 21.994L21.7469 22.5513C21.5202 22.8282 21.1083 22.7898 21.1083 22.7898L21.0965 22.7973C18.0245 22.0125 17.205 18.9021 17.205 18.9021C17.205 18.9021 17.1666 18.4791 17.4508 18.2635L18.0045 17.8175C18.2696 17.602 18.4542 17.0911 18.1699 16.5868C17.7354 15.8339 17.2279 15.1254 16.655 14.4717C16.5297 14.3175 16.354 14.2127 16.1588 14.1756L16.1603 14.1771Z" fill="black"></path>
    <path d="M21.3516 12.8251C21.041 12.8251 20.7891 13.0769 20.7891 13.3876C20.7891 13.6982 21.041 13.9501 21.3516 13.9501C22.7742 13.9501 23.9562 14.4151 24.8901 15.3054C25.3708 15.793 25.745 16.3701 25.9907 17.0017C26.2373 17.6356 26.3494 18.3116 26.3206 18.9887C26.3075 19.299 26.5483 19.5614 26.8587 19.5745C27.1691 19.5878 27.4314 19.3468 27.4446 19.0364C27.48 18.2035 27.3419 17.3724 27.039 16.5938C26.7362 15.8153 26.2753 15.1059 25.6845 14.5086L25.6733 14.4978C24.5145 13.3896 23.0457 12.8251 21.3516 12.8251Z" fill="black"></path>
    <path d="M21.3134 14.6749C21.0027 14.6749 20.7509 14.9268 20.7509 15.2374C20.7509 15.5481 21.0027 15.7999 21.3134 15.7999H21.3317C22.3582 15.8723 23.1051 16.2144 23.6288 16.7761C24.1649 17.3545 24.4425 18.073 24.422 18.9619C24.4148 19.2724 24.6608 19.5301 24.9713 19.5373C25.2819 19.5445 25.5395 19.2985 25.5467 18.9879C25.5737 17.8208 25.1983 16.8143 24.4533 16.0107L24.4523 16.0096C23.6911 15.1928 22.6468 14.7606 21.3887 14.6762L21.3699 14.6749H21.3134Z" fill="black"></path>
    <path d="M21.2921 16.5585C20.9818 16.5422 20.7171 16.7805 20.7008 17.0907C20.6845 17.4009 20.9227 17.6656 21.2329 17.682C21.7039 17.7068 22.0041 17.848 22.1929 18.0386C22.3825 18.2301 22.5243 18.5367 22.5502 19.0173C22.5669 19.3275 22.8319 19.5655 23.1421 19.5487C23.4523 19.5321 23.6902 19.2671 23.6736 18.9568C23.6373 18.2818 23.426 17.685 22.9923 17.247C22.5577 16.8082 21.9643 16.5939 21.2921 16.5585Z" fill="black"></path>
    <path fill-rule="evenodd" clip-rule="evenodd" d="M15.1501 9.88141C18.7299 9.0812 22.4423 9.0812 26.0222 9.88141L26.4036 9.96666C28.5375 10.4437 30.2217 12.0803 30.7595 14.1997C31.6682 17.7804 31.6682 21.5314 30.7595 25.112C30.2217 27.2314 28.5374 28.8681 26.4036 29.3451L26.0222 29.4303C23.7735 29.933 21.4725 30.1199 19.185 29.991L16.2001 32.6617C15.9709 32.8668 15.6483 32.9309 15.3581 32.8291C15.0679 32.7273 14.8561 32.4756 14.8053 32.1722L14.3117 29.2232C12.3965 28.6281 10.9116 27.0776 10.4128 25.112C9.50408 21.5314 9.50408 17.7804 10.4128 14.1997C10.9506 12.0803 12.6348 10.4437 14.7687 9.96666L15.1501 9.88141ZM25.6541 11.5283C22.3166 10.7823 18.8557 10.7823 15.5182 11.5283L15.1368 11.6135C13.6239 11.9517 12.4297 13.1121 12.0484 14.6148C11.2089 17.9231 11.2089 21.3886 12.0484 24.6969C12.4297 26.1996 13.6238 27.36 15.1368 27.6982L15.2375 27.7207C15.5727 27.7956 15.829 28.0662 15.8857 28.4048L16.2167 30.3825L18.3231 28.4978C18.4932 28.3456 18.7176 28.2688 18.9453 28.285C21.188 28.4437 23.448 28.2765 25.6541 27.7835L26.0354 27.6982C27.5484 27.36 28.7425 26.1996 29.1239 24.6969C29.9634 21.3886 29.9634 17.9231 29.1239 14.6148C28.7425 13.1121 27.5484 11.9517 26.0354 11.6135L25.6541 11.5283Z" fill="black"></path>
    <circle cx="20.25" cy="20.25" r="19.25" stroke="black" stroke-width="2"></circle>
  </svg>

<svg fill="none" viewBox="0 0 41 41" id="vk">
    <g clip-path="url(#clip0_19_96)">
      <path d="M29.6218 24.7911C29.1319 24.2031 28.5752 23.6761 28.0368 23.1664C27.8454 22.9851 27.6474 22.7977 27.4566 22.6113C26.9088 22.0757 26.8889 21.8745 27.3226 21.2662C27.6227 20.8468 27.9408 20.4269 28.2485 20.0208C28.5276 19.6524 28.8162 19.2714 29.0928 18.8891L29.1496 18.8105C29.6782 18.0791 30.2249 17.3227 30.5159 16.4102C30.5915 16.1695 30.6708 15.8153 30.4894 15.519C30.3081 15.2231 29.9565 15.1328 29.7077 15.0906C29.5846 15.0697 29.4624 15.0669 29.349 15.0669L25.887 15.0644L25.8584 15.0641C25.3349 15.0641 24.9821 15.3108 24.78 15.8184C24.587 16.3033 24.375 16.8197 24.1331 17.3107C23.6517 18.2884 23.0403 19.4145 22.1556 20.3537L22.1182 20.3937C22.0137 20.5059 21.8954 20.6331 21.8089 20.6331C21.7956 20.6331 21.7812 20.6305 21.7648 20.6254C21.5816 20.554 21.4586 20.1104 21.4641 19.904C21.4642 19.9012 21.4643 19.8983 21.4643 19.8955L21.4619 15.894C21.4619 15.8802 21.4609 15.8664 21.4591 15.8527C21.371 15.2022 21.1759 14.7973 20.4388 14.6529C20.4192 14.649 20.3992 14.6471 20.3793 14.6471H16.7794C16.1929 14.6471 15.8698 14.8855 15.566 15.2423C15.484 15.3376 15.3133 15.5362 15.3979 15.777C15.4837 16.0215 15.7624 16.0738 15.8531 16.0907C16.3035 16.1764 16.5573 16.4519 16.6292 16.9333C16.7548 17.7691 16.7702 18.6612 16.6778 19.7409C16.652 20.0409 16.6011 20.2727 16.5171 20.4707C16.4976 20.5169 16.4284 20.6677 16.3578 20.6678C16.3354 20.6678 16.2706 20.659 16.1525 20.5776C15.8732 20.3863 15.6689 20.1133 15.4307 19.7761C14.6204 18.6309 13.9403 17.3693 13.3513 15.9184C13.1329 15.3843 12.725 15.0853 12.2021 15.0765C11.6277 15.0678 11.1068 15.0636 10.61 15.0636C10.0673 15.0636 9.56408 15.0686 9.07271 15.0788C8.65206 15.0863 8.36111 15.2123 8.20801 15.4539C8.05467 15.6956 8.06464 16.0131 8.23768 16.3975C9.62285 19.4769 10.8788 21.716 12.31 23.6577C13.3129 25.0163 14.3188 25.9568 15.4753 26.617C16.6938 27.3141 18.0592 27.653 19.6497 27.653C19.8299 27.653 20.0164 27.6486 20.2043 27.6398C21.1285 27.5947 21.4713 27.2603 21.5147 26.3604C21.5353 25.9006 21.5856 25.4183 21.8116 25.007C21.9543 24.7479 22.0874 24.7479 22.1311 24.7479C22.2153 24.7479 22.3197 24.7867 22.4319 24.8593C22.6331 24.9906 22.8055 25.1665 22.9469 25.3202C23.08 25.4661 23.2116 25.6136 23.3434 25.7611C23.6276 26.0795 23.9216 26.4087 24.2286 26.7209C24.9007 27.4047 25.6411 27.7054 26.4915 27.6401H29.6656C29.6724 27.6401 29.6792 27.6399 29.6859 27.6395C30.0022 27.6186 30.2762 27.4431 30.4375 27.1581C30.6373 26.8051 30.6333 26.3546 30.4267 25.9529C30.1923 25.4987 29.8882 25.1107 29.6218 24.7911Z" fill="black"></path>
    </g>
    <circle cx="20.25" cy="20.25" r="19.25" stroke="black" stroke-width="2"></circle>
    <defs>
      <clipPath id="clip0_19_96">
        <rect width="22.5" height="22.5" fill="white" transform="translate(8.1 9.90002)"></rect>
      </clipPath>
    </defs>
  </svg>

<svg fill="none" viewBox="0 0 40 41" id="mail">
    <path d="M39 20.5C39 31.293 30.4703 40 20 40C9.52972 40 1 31.293 1 20.5C1 9.70703 9.52972 1 20 1C30.4703 1 39 9.70703 39 20.5Z" stroke="black" stroke-width="2"></path>
    <g clip-path="url(#clip0_179_4)">
      <path d="M8 20.5V29H19.5H31V20.5V12H19.5H8V20.5ZM28.3873 13.5767C28.3945 13.5961 27.3847 14.602 25.0847 16.8675C19.7552 22.1154 20.1882 21.6944 20.066 21.7561C19.6923 21.9428 19.2053 21.9093 18.8945 21.675C18.8154 21.6151 11.3907 14.2673 10.8049 13.6683C10.7618 13.6242 10.733 13.5802 10.7384 13.5696C10.7474 13.5555 13.2073 13.5503 19.5647 13.5503C27.4152 13.5503 28.3784 13.5538 28.3873 13.5767ZM12.5281 17.5756C14.1184 19.1541 15.4211 20.456 15.4211 20.4665C15.4211 20.4841 9.72859 26.2025 9.64773 26.2659C9.63156 26.28 9.61 26.2853 9.59922 26.2782C9.57945 26.2659 9.57227 14.7746 9.59203 14.7218C9.59922 14.7059 9.61 14.6953 9.61898 14.6989C9.62617 14.7024 10.9361 15.9954 12.5281 17.5756ZM29.4134 20.544C29.417 24.166 29.4116 26.2518 29.4008 26.2694C29.3864 26.2906 29.3559 26.2694 29.2427 26.1549C27.7908 24.7121 23.6328 20.5176 23.6364 20.5C23.6454 20.4577 29.3541 14.838 29.3828 14.8416C29.4062 14.8451 29.4098 15.4934 29.4134 20.544ZM17.182 22.193C17.5234 22.5277 17.863 22.8483 17.9367 22.9029C18.4093 23.2588 18.9969 23.4332 19.6402 23.4103C20.057 23.3962 20.42 23.3063 20.7632 23.1354C21.0902 22.9716 21.1927 22.8888 21.8557 22.2317C22.2348 21.8565 22.4882 21.6169 22.5062 21.6222C22.5439 21.631 28.2885 27.3987 28.2813 27.4216C28.2759 27.4356 25.8142 27.4409 19.5072 27.4409C11.5345 27.4409 10.7402 27.4392 10.7402 27.4127C10.7402 27.3828 16.5136 21.5834 16.5441 21.5834C16.5549 21.5834 16.8406 21.8582 17.182 22.193Z" fill="black"></path>
    </g>
    <defs>
      <clipPath id="clip0_179_4">
        <rect width="23" height="17" fill="white" transform="translate(8 12)"></rect>
      </clipPath>
    </defs>
  </svg>  

</svg>