<svg width="40" height="41" viewBox="0 0 40 41" fill="none" xmlns="http://www.w3.org/2000/svg">
<path d="M39 20.5C39 31.293 30.4703 40 20 40C9.52972 40 1 31.293 1 20.5C1 9.70703 9.52972 1 20 1C30.4703 1 39 9.70703 39 20.5Z" stroke="black" stroke-width="2"/>
<g clip-path="url(#clip0_179_4)">
<path d="M8 20.5V29H19.5H31V20.5V12H19.5H8V20.5ZM28.3873 13.5767C28.3945 13.5961 27.3847 14.602 25.0847 16.8675C19.7552 22.1154 20.1882 21.6944 20.066 21.7561C19.6923 21.9428 19.2053 21.9093 18.8945 21.675C18.8154 21.6151 11.3907 14.2673 10.8049 13.6683C10.7618 13.6242 10.733 13.5802 10.7384 13.5696C10.7474 13.5555 13.2073 13.5503 19.5647 13.5503C27.4152 13.5503 28.3784 13.5538 28.3873 13.5767ZM12.5281 17.5756C14.1184 19.1541 15.4211 20.456 15.4211 20.4665C15.4211 20.4841 9.72859 26.2025 9.64773 26.2659C9.63156 26.28 9.61 26.2853 9.59922 26.2782C9.57945 26.2659 9.57227 14.7746 9.59203 14.7218C9.59922 14.7059 9.61 14.6953 9.61898 14.6989C9.62617 14.7024 10.9361 15.9954 12.5281 17.5756ZM29.4134 20.544C29.417 24.166 29.4116 26.2518 29.4008 26.2694C29.3864 26.2906 29.3559 26.2694 29.2427 26.1549C27.7908 24.7121 23.6328 20.5176 23.6364 20.5C23.6454 20.4577 29.3541 14.838 29.3828 14.8416C29.4062 14.8451 29.4098 15.4934 29.4134 20.544ZM17.182 22.193C17.5234 22.5277 17.863 22.8483 17.9367 22.9029C18.4093 23.2588 18.9969 23.4332 19.6402 23.4103C20.057 23.3962 20.42 23.3063 20.7632 23.1354C21.0902 22.9716 21.1927 22.8888 21.8557 22.2317C22.2348 21.8565 22.4882 21.6169 22.5062 21.6222C22.5439 21.631 28.2885 27.3987 28.2813 27.4216C28.2759 27.4356 25.8142 27.4409 19.5072 27.4409C11.5345 27.4409 10.7402 27.4392 10.7402 27.4127C10.7402 27.3828 16.5136 21.5834 16.5441 21.5834C16.5549 21.5834 16.8406 21.8582 17.182 22.193Z" fill="black"/>
</g>
<defs>
<clipPath id="clip0_179_4">
<rect width="23" height="17" fill="white" transform="translate(8 12)"/>
</clipPath>
</defs>
</svg>
