<svg width="62" height="62" viewBox="0 0 62 62" fill="none" xmlns="http://www.w3.org/2000/svg">
<rect x="1.5" y="1.5" width="59" height="59" rx="8.5" fill="white" stroke="black" stroke-width="3"/>
<path d="M19.0951 19.6047H23.9519V43H19.0951V19.6047ZM43.903 19.6364V43H39.5065V40.6033C38.861 41.6297 38.1256 42.3757 37.3003 42.8413C36.4749 43.3069 35.4486 43.5396 34.2211 43.5396C32.2001 43.5396 30.4965 42.7249 29.1103 41.0954C27.7348 39.4553 27.047 37.3549 27.047 34.7942C27.047 31.842 27.7242 29.5194 29.0786 27.8264C30.4436 26.1334 32.2636 25.2868 34.5386 25.2868C35.5861 25.2868 36.5173 25.5196 37.332 25.9852C38.1468 26.4402 38.8081 27.0751 39.316 27.8899V19.6364H43.903ZM31.7133 34.4609C31.7133 36.0586 32.0308 37.3337 32.6657 38.286C33.29 39.2489 34.2423 39.7304 35.5226 39.7304C36.803 39.7304 37.7765 39.2542 38.4431 38.3019C39.1097 37.3496 39.443 36.1168 39.443 34.6037C39.443 32.4874 38.9087 30.9743 37.8399 30.0643C37.1839 29.5141 36.422 29.239 35.5544 29.239C34.2317 29.239 33.2582 29.7416 32.6339 30.7468C32.0202 31.7415 31.7133 32.9795 31.7133 34.4609Z" fill="black"/>
</svg>
