<svg width="62" height="62" viewBox="0 0 62 62" fill="none" xmlns="http://www.w3.org/2000/svg">
<rect x="1.5" y="1.5" width="59" height="59" rx="8.5" fill="white" stroke="black" stroke-width="3"/>
<path d="M23.4119 34.5878H18.444V43H13.5871V19.6047H23.777C26.126 19.6047 27.9989 20.2078 29.3956 21.4141C30.7924 22.6203 31.4908 24.488 31.4908 27.0169C31.4908 29.7786 30.7924 31.7309 29.3956 32.8737C27.9989 34.0164 26.0043 34.5878 23.4119 34.5878ZM25.6975 29.7151C26.3324 29.1543 26.6498 28.2655 26.6498 27.0486C26.6498 25.8318 26.3271 24.9641 25.6816 24.4456C25.0467 23.9271 24.1526 23.6679 22.9992 23.6679H18.444V30.5564H22.9992C24.1526 30.5564 25.052 30.2759 25.6975 29.7151ZM46.712 26.4931C48.0664 27.3608 48.8441 28.8528 49.0452 30.969H44.5217C44.4582 30.387 44.2942 29.9268 44.0296 29.5882C43.5323 28.9744 42.6858 28.6676 41.4901 28.6676C40.5061 28.6676 39.8024 28.821 39.3791 29.1279C38.9665 29.4347 38.7601 29.7945 38.7601 30.2072C38.7601 30.7257 38.9823 31.1013 39.4268 31.3341C39.8712 31.5774 41.4425 31.9954 44.1407 32.588C45.9396 33.0112 47.2887 33.6514 48.1881 34.5085C49.0769 35.3761 49.5213 36.4607 49.5213 37.7622C49.5213 39.4764 48.8812 40.8784 47.6008 41.9683C46.3311 43.0476 44.3629 43.5873 41.6965 43.5873C38.977 43.5873 36.9666 43.0159 35.6651 41.8731C34.3742 40.7197 33.7287 39.2542 33.7287 37.4765H38.3157C38.4109 38.2807 38.6173 38.8521 38.9347 39.1907C39.4955 39.7939 40.5325 40.0954 42.0456 40.0954C42.9345 40.0954 43.6381 39.9632 44.1566 39.6986C44.6857 39.4341 44.9502 39.0373 44.9502 38.5082C44.9502 38.0003 44.7386 37.6141 44.3153 37.3496C43.8921 37.085 42.3207 36.63 39.6013 35.9846C37.6438 35.4978 36.2629 34.8894 35.4588 34.1593C34.6546 33.4398 34.2525 32.4028 34.2525 31.0484C34.2525 29.4506 34.8768 28.0803 36.1254 26.9375C37.3846 25.7842 39.1516 25.2075 41.4266 25.2075C43.5852 25.2075 45.347 25.636 46.712 26.4931Z" fill="black"/>
</svg>
