<svg width="41" height="41" viewBox="0 0 41 41" fill="none" xmlns="http://www.w3.org/2000/svg">
<circle cx="20.25" cy="20.25" r="19.25" stroke="black" stroke-width="2"/>
<path fill-rule="evenodd" clip-rule="evenodd" d="M25.043 22.402C24.7841 22.2726 23.5144 21.6479 23.277 21.5613C23.0406 21.4757 22.8673 21.4319 22.6951 21.6907C22.5229 21.9496 22.0276 22.5315 21.8768 22.7037C21.726 22.8759 21.5752 22.8973 21.3174 22.7679C21.0585 22.6384 20.2264 22.3657 19.2391 21.4854C18.4711 20.8008 17.9523 19.9547 17.8015 19.6958C17.6507 19.437 17.7854 19.2979 17.9149 19.1685C18.0314 19.053 18.1737 18.8669 18.3021 18.716C18.4315 18.5652 18.4743 18.4572 18.5599 18.285C18.6465 18.1128 18.6026 17.9619 18.5385 17.8325C18.4743 17.7031 17.9576 16.4313 17.7416 15.9146C17.5319 15.4108 17.3191 15.4793 17.1597 15.4707C17.0089 15.4633 16.8367 15.4622 16.6644 15.4622C16.4922 15.4622 16.212 15.5264 15.9756 15.7852C15.7392 16.0441 15.0707 16.6687 15.0707 17.9405C15.0707 19.2113 15.997 20.4403 16.1253 20.6125C16.2548 20.7847 17.9469 23.3936 20.5387 24.5135C21.1559 24.7799 21.6362 24.9382 22.0116 25.058C22.6309 25.2548 23.1936 25.227 23.6385 25.1607C24.1348 25.0869 25.167 24.536 25.3831 23.9316C25.5981 23.3284 25.5981 22.8117 25.5339 22.7037C25.4698 22.5956 25.2975 22.5315 25.0387 22.402H25.043ZM20.328 28.837H20.3248C18.7823 28.837 17.2699 28.422 15.9499 27.639L15.6365 27.4529L12.3837 28.3065L13.2523 25.1361L13.048 24.8109C12.188 23.4428 11.7334 21.8619 11.7344 20.2381C11.7366 15.5007 15.5916 11.6468 20.3333 11.6468C22.6288 11.6478 24.7873 12.5431 26.41 14.1668C28.0326 15.7916 28.9258 17.9502 28.9247 20.2456C28.9226 24.9831 25.0665 28.8381 20.329 28.8381L20.328 28.837ZM27.6433 12.9325C25.6912 10.9782 23.0941 9.90216 20.328 9.90002C14.6278 9.90002 9.98878 14.5369 9.98664 20.2371C9.98557 22.0587 10.4626 23.8375 11.3665 25.4056L9.9 30.7624L15.3819 29.3248C16.8923 30.1484 18.593 30.5827 20.3237 30.5838H20.328C26.027 30.5838 30.6661 25.9458 30.6693 20.2456C30.6704 17.4838 29.5954 14.8856 27.6433 12.9325Z" fill="black"/>
</svg>
