<svg width="41" height="41" viewBox="0 0 41 41" fill="none" xmlns="http://www.w3.org/2000/svg">
<circle cx="20.25" cy="20.25" r="19.25" stroke="black" stroke-width="2"/>
<path fill-rule="evenodd" clip-rule="evenodd" d="M28.8031 12.954C28.7322 12.7446 28.6477 12.6894 28.5149 12.6365C28.2255 12.5295 27.7335 12.6916 27.7335 12.6916C27.7335 12.6916 10.348 18.9424 9.355 19.6337C9.14108 19.7823 9.06903 19.8701 9.03413 19.9726C8.86187 20.4635 9.39778 20.6808 9.39778 20.6808L13.8787 22.141C13.8787 22.141 14.0453 22.1658 14.105 22.1275C15.125 21.4824 24.3616 15.6515 24.8941 15.4556C24.9786 15.4309 25.0405 15.4579 25.0236 15.5164C24.8108 16.2663 16.7879 23.3952 16.7879 23.3952C16.7879 23.3952 16.7575 23.4335 16.7384 23.4774L16.7283 23.4718L16.3106 27.9167C16.3106 27.9167 16.1349 29.2778 17.4972 27.9167C18.4576 26.9552 19.3875 26.1502 19.8525 25.7618C21.3938 26.8257 23.0511 28.0022 23.7671 28.6169C24.1263 28.9254 24.4269 28.975 24.6746 28.9671C25.3535 28.9423 25.5437 28.1959 25.5437 28.1959C25.5437 28.1959 28.7119 15.4444 28.8178 13.7353C28.8279 13.5676 28.8425 13.4629 28.8436 13.3469C28.8459 13.187 28.8301 13.0272 28.8042 12.9528L28.8031 12.954Z" fill="black"/>
</svg>
