<svg width="41" height="41" viewBox="0 0 41 41" fill="none" xmlns="http://www.w3.org/2000/svg">
<g clip-path="url(#clip0_19_96)">
<path d="M29.6218 24.7911C29.1319 24.2031 28.5752 23.6761 28.0368 23.1664C27.8454 22.9851 27.6474 22.7977 27.4566 22.6113C26.9088 22.0757 26.8889 21.8745 27.3226 21.2662C27.6227 20.8468 27.9408 20.4269 28.2485 20.0208C28.5276 19.6524 28.8162 19.2714 29.0928 18.8891L29.1496 18.8105C29.6782 18.0791 30.2249 17.3227 30.5159 16.4102C30.5915 16.1695 30.6708 15.8153 30.4894 15.519C30.3081 15.2231 29.9565 15.1328 29.7077 15.0906C29.5846 15.0697 29.4624 15.0669 29.349 15.0669L25.887 15.0644L25.8584 15.0641C25.3349 15.0641 24.9821 15.3108 24.78 15.8184C24.587 16.3033 24.375 16.8197 24.1331 17.3107C23.6517 18.2884 23.0403 19.4145 22.1556 20.3537L22.1182 20.3937C22.0137 20.5059 21.8954 20.6331 21.8089 20.6331C21.7956 20.6331 21.7812 20.6305 21.7648 20.6254C21.5816 20.554 21.4586 20.1104 21.4641 19.904C21.4642 19.9012 21.4643 19.8983 21.4643 19.8955L21.4619 15.894C21.4619 15.8802 21.4609 15.8664 21.4591 15.8527C21.371 15.2022 21.1759 14.7973 20.4388 14.6529C20.4192 14.649 20.3992 14.6471 20.3793 14.6471H16.7794C16.1929 14.6471 15.8698 14.8855 15.566 15.2423C15.484 15.3376 15.3133 15.5362 15.3979 15.777C15.4837 16.0215 15.7624 16.0738 15.8531 16.0907C16.3035 16.1764 16.5573 16.4519 16.6292 16.9333C16.7548 17.7691 16.7702 18.6612 16.6778 19.7409C16.652 20.0409 16.6011 20.2727 16.5171 20.4707C16.4976 20.5169 16.4284 20.6677 16.3578 20.6678C16.3354 20.6678 16.2706 20.659 16.1525 20.5776C15.8732 20.3863 15.6689 20.1133 15.4307 19.7761C14.6204 18.6309 13.9403 17.3693 13.3513 15.9184C13.1329 15.3843 12.725 15.0853 12.2021 15.0765C11.6277 15.0678 11.1068 15.0636 10.61 15.0636C10.0673 15.0636 9.56408 15.0686 9.07271 15.0788C8.65206 15.0863 8.36111 15.2123 8.20801 15.4539C8.05467 15.6956 8.06464 16.0131 8.23768 16.3975C9.62285 19.4769 10.8788 21.716 12.31 23.6577C13.3129 25.0163 14.3188 25.9568 15.4753 26.617C16.6938 27.3141 18.0592 27.653 19.6497 27.653C19.8299 27.653 20.0164 27.6486 20.2043 27.6398C21.1285 27.5947 21.4713 27.2603 21.5147 26.3604C21.5353 25.9006 21.5856 25.4183 21.8116 25.007C21.9543 24.7479 22.0874 24.7479 22.1311 24.7479C22.2153 24.7479 22.3197 24.7867 22.4319 24.8593C22.6331 24.9906 22.8055 25.1665 22.9469 25.3202C23.08 25.4661 23.2116 25.6136 23.3434 25.7611C23.6276 26.0795 23.9216 26.4087 24.2286 26.7209C24.9007 27.4047 25.6411 27.7054 26.4915 27.6401H29.6656C29.6724 27.6401 29.6792 27.6399 29.6859 27.6395C30.0022 27.6186 30.2762 27.4431 30.4375 27.1581C30.6373 26.8051 30.6333 26.3546 30.4267 25.9529C30.1923 25.4987 29.8882 25.1107 29.6218 24.7911Z" fill="black"/>
</g>
<circle cx="20.25" cy="20.25" r="19.25" stroke="black" stroke-width="2"/>
<defs>
<clipPath id="clip0_19_96">
<rect width="22.5" height="22.5" fill="white" transform="translate(8.1 9.90002)"/>
</clipPath>
</defs>
</svg>
