<svg width="41" height="41" viewBox="0 0 41 41" fill="none" xmlns="http://www.w3.org/2000/svg">
<path d="M16.1603 14.1771C15.9513 14.1465 15.7382 14.1885 15.5564 14.2959H15.5409C15.1188 14.5434 14.7385 14.8561 14.4143 15.2225C14.1448 15.534 13.9986 15.8493 13.9602 16.1527C13.9373 16.3336 13.9528 16.5145 14.0067 16.6872L14.0259 16.699C14.3294 17.5909 14.7258 18.4488 15.2101 19.2564C15.834 20.3911 16.6018 21.4405 17.4944 22.3787L17.521 22.417L17.5631 22.4481L17.5896 22.479L17.6206 22.5057C18.5622 23.4008 19.614 24.1722 20.751 24.8009C22.0503 25.5082 22.8389 25.8426 23.312 25.9815V25.9888C23.4509 26.031 23.5771 26.0501 23.7041 26.0501C24.1074 26.0205 24.4892 25.8568 24.7886 25.585C25.1533 25.2607 25.4626 24.8789 25.7041 24.4547V24.4473C25.9307 24.0206 25.854 23.6167 25.5269 23.3436C24.8718 22.7711 24.1637 22.2626 23.4117 21.8249C22.9082 21.5518 22.3966 21.7172 22.1892 21.994L21.7469 22.5513C21.5202 22.8282 21.1083 22.7898 21.1083 22.7898L21.0965 22.7973C18.0245 22.0125 17.205 18.9021 17.205 18.9021C17.205 18.9021 17.1666 18.4791 17.4508 18.2635L18.0045 17.8175C18.2696 17.602 18.4542 17.0911 18.1699 16.5868C17.7354 15.8339 17.2279 15.1254 16.655 14.4717C16.5297 14.3175 16.354 14.2127 16.1588 14.1756L16.1603 14.1771Z" fill="black"/>
<path d="M21.3516 12.8251C21.041 12.8251 20.7891 13.0769 20.7891 13.3876C20.7891 13.6982 21.041 13.9501 21.3516 13.9501C22.7742 13.9501 23.9562 14.4151 24.8901 15.3054C25.3708 15.793 25.745 16.3701 25.9907 17.0017C26.2373 17.6356 26.3494 18.3116 26.3206 18.9887C26.3075 19.299 26.5483 19.5614 26.8587 19.5745C27.1691 19.5878 27.4314 19.3468 27.4446 19.0364C27.48 18.2035 27.3419 17.3724 27.039 16.5938C26.7362 15.8153 26.2753 15.1059 25.6845 14.5086L25.6733 14.4978C24.5145 13.3896 23.0457 12.8251 21.3516 12.8251Z" fill="black"/>
<path d="M21.3134 14.6749C21.0027 14.6749 20.7509 14.9268 20.7509 15.2374C20.7509 15.5481 21.0027 15.7999 21.3134 15.7999H21.3317C22.3582 15.8723 23.1051 16.2144 23.6288 16.7761C24.1649 17.3545 24.4425 18.073 24.422 18.9619C24.4148 19.2724 24.6608 19.5301 24.9713 19.5373C25.2819 19.5445 25.5395 19.2985 25.5467 18.9879C25.5737 17.8208 25.1983 16.8143 24.4533 16.0107L24.4523 16.0096C23.6911 15.1928 22.6468 14.7606 21.3887 14.6762L21.3699 14.6749H21.3134Z" fill="black"/>
<path d="M21.2921 16.5585C20.9818 16.5422 20.7171 16.7805 20.7008 17.0907C20.6845 17.4009 20.9227 17.6656 21.2329 17.682C21.7039 17.7068 22.0041 17.848 22.1929 18.0386C22.3825 18.2301 22.5243 18.5367 22.5502 19.0173C22.5669 19.3275 22.8319 19.5655 23.1421 19.5487C23.4523 19.5321 23.6902 19.2671 23.6736 18.9568C23.6373 18.2818 23.426 17.685 22.9923 17.247C22.5577 16.8082 21.9643 16.5939 21.2921 16.5585Z" fill="black"/>
<path fill-rule="evenodd" clip-rule="evenodd" d="M15.1501 9.88141C18.7299 9.0812 22.4423 9.0812 26.0222 9.88141L26.4036 9.96666C28.5375 10.4437 30.2217 12.0803 30.7595 14.1997C31.6682 17.7804 31.6682 21.5314 30.7595 25.112C30.2217 27.2314 28.5374 28.8681 26.4036 29.3451L26.0222 29.4303C23.7735 29.933 21.4725 30.1199 19.185 29.991L16.2001 32.6617C15.9709 32.8668 15.6483 32.9309 15.3581 32.8291C15.0679 32.7273 14.8561 32.4756 14.8053 32.1722L14.3117 29.2232C12.3965 28.6281 10.9116 27.0776 10.4128 25.112C9.50408 21.5314 9.50408 17.7804 10.4128 14.1997C10.9506 12.0803 12.6348 10.4437 14.7687 9.96666L15.1501 9.88141ZM25.6541 11.5283C22.3166 10.7823 18.8557 10.7823 15.5182 11.5283L15.1368 11.6135C13.6239 11.9517 12.4297 13.1121 12.0484 14.6148C11.2089 17.9231 11.2089 21.3886 12.0484 24.6969C12.4297 26.1996 13.6238 27.36 15.1368 27.6982L15.2375 27.7207C15.5727 27.7956 15.829 28.0662 15.8857 28.4048L16.2167 30.3825L18.3231 28.4978C18.4932 28.3456 18.7176 28.2688 18.9453 28.285C21.188 28.4437 23.448 28.2765 25.6541 27.7835L26.0354 27.6982C27.5484 27.36 28.7425 26.1996 29.1239 24.6969C29.9634 21.3886 29.9634 17.9231 29.1239 14.6148C28.7425 13.1121 27.5484 11.9517 26.0354 11.6135L25.6541 11.5283Z" fill="black"/>
<circle cx="20.25" cy="20.25" r="19.25" stroke="black" stroke-width="2"/>
</svg>
