<svg width="418" height="190" viewBox="0 0 418 190" fill="none" xmlns="http://www.w3.org/2000/svg">
<path d="M84.3519 73.535C91.4484 81.1154 94.9966 92.244 94.9966 106.921C94.9966 122.404 91.5021 134.205 84.5131 142.323C77.5779 150.441 68.6266 154.5 57.6593 154.5C50.6703 154.5 44.864 152.753 40.2405 149.258C37.7137 147.323 35.2407 144.5 32.8214 140.791V186.596H10.0803V64.0999H32.0956V77.0833C34.5687 73.2662 37.203 70.2556 39.9986 68.0514C45.1059 64.1268 51.181 62.1645 58.2237 62.1645C68.4922 62.1645 77.2016 65.9547 84.3519 73.535ZM71.2878 108.05C71.2878 101.276 69.7287 95.2816 66.6106 90.0667C63.5461 84.8518 58.5463 82.2444 51.6111 82.2444C43.278 82.2444 37.5524 86.1959 34.4343 94.0988C32.8214 98.2922 32.015 103.615 32.015 110.066C32.015 120.281 34.73 127.458 40.1599 131.597C43.3856 134.017 47.2026 135.226 51.6111 135.226C58.0087 135.226 62.8741 132.753 66.2073 127.807C69.5943 122.861 71.2878 116.275 71.2878 108.05ZM184.993 75.2285C192.413 84.5293 196.122 95.5235 196.122 108.211C196.122 121.114 192.413 132.162 184.993 141.355C177.574 150.495 166.311 155.064 151.204 155.064C136.097 155.064 124.834 150.495 117.415 141.355C109.996 132.162 106.287 121.114 106.287 108.211C106.287 95.5235 109.996 84.5293 117.415 75.2285C124.834 65.9278 136.097 61.2774 151.204 61.2774C166.311 61.2774 177.574 65.9278 184.993 75.2285ZM151.124 80.7122C144.403 80.7122 139.216 83.1046 135.56 87.8894C131.958 92.6204 130.157 99.3943 130.157 108.211C130.157 117.028 131.958 123.829 135.56 128.614C139.216 133.399 144.403 135.791 151.124 135.791C157.844 135.791 163.005 133.399 166.607 128.614C170.209 123.829 172.01 117.028 172.01 108.211C172.01 99.3943 170.209 92.6204 166.607 87.8894C163.005 83.1046 157.844 80.7122 151.124 80.7122ZM256.846 85.3088C247.599 85.3088 241.389 88.3195 238.217 94.3407C236.443 97.7277 235.556 102.943 235.556 109.985V152H212.412V64.0999H234.347V79.4219C237.895 73.5619 240.986 69.5567 243.62 67.4062C247.921 63.8042 253.513 62.0032 260.394 62.0032C260.824 62.0032 261.174 62.0301 261.442 62.0838C261.765 62.0838 262.437 62.1107 263.458 62.1645V85.712C262.007 85.5507 260.717 85.4432 259.588 85.3894C258.459 85.3357 257.545 85.3088 256.846 85.3088ZM317.247 135.63V152.806L306.36 153.21C295.5 153.586 288.081 151.704 284.103 147.565C281.522 144.93 280.232 140.871 280.232 135.388V81.2767H267.974V64.9063H280.232V40.391H302.973V64.9063H317.247V81.2767H302.973V127.727C302.973 131.329 303.43 133.587 304.344 134.501C305.258 135.361 308.054 135.791 312.731 135.791C313.43 135.791 314.156 135.791 314.908 135.791C315.715 135.737 316.494 135.683 317.247 135.63ZM331.601 127.969H356.036V152H331.601V127.969Z" fill="black"/>
<path d="M384.926 138.199L389.22 139.117L389.22 143.113L408 147.087L408 153.154L389.22 149.18L389.22 152.577L384.926 151.659L384.926 148.326L383.43 148.005C380.937 147.478 379.221 146.695 378.281 145.655C376.885 144.473 376.187 142.194 376.187 138.818C376.187 138.434 376.201 138.092 376.23 137.793C376.244 137.479 376.273 137.052 376.315 136.511L381.272 137.579C381.229 137.907 381.201 138.469 381.187 139.267C381.158 140.064 381.336 140.663 381.721 141.062C382.091 141.446 382.504 141.681 382.96 141.767C383.416 141.866 384.071 142.009 384.926 142.194L384.926 138.199ZM387.66 115.85C390.124 114.412 393.037 114.049 396.399 114.761C399.817 115.487 402.744 117.097 405.18 119.589C407.601 122.068 408.812 125.308 408.812 129.311C408.812 133.313 407.601 136.041 405.18 137.494C402.744 138.932 399.817 139.288 396.399 138.562C393.037 137.85 390.124 136.247 387.66 133.755C385.196 131.262 383.964 128.014 383.964 124.012C383.964 120.01 385.196 117.289 387.66 115.85ZM389.113 125.144C389.113 126.925 389.747 128.428 391.015 129.652C392.268 130.877 394.063 131.739 396.399 132.238C398.735 132.736 400.536 132.644 401.804 131.96C403.072 131.262 403.706 130.023 403.706 128.242C403.706 126.462 403.072 124.959 401.804 123.734C400.536 122.509 398.735 121.648 396.399 121.149C394.063 120.651 392.268 120.75 391.015 121.448C389.747 122.132 389.113 123.364 389.113 125.144ZM408 112.71L376.508 106.022L376.508 99.9334L408 106.621L408 112.71ZM384.712 95.639L384.712 89.4644L408 94.3998L408 100.574L384.712 95.639ZM376.315 93.8443L376.315 87.6697L381.934 88.8662L381.934 95.0407L376.315 93.8443ZM387.66 64.7448C390.124 63.3062 393.037 62.943 396.399 63.6552C399.817 64.3816 402.744 65.9911 405.18 68.4837C407.601 70.9621 408.812 74.2025 408.812 78.2049C408.812 82.2073 407.601 84.935 405.18 86.3878C402.744 87.8264 399.817 88.1825 396.399 87.4561C393.037 86.7439 390.124 85.1415 387.66 82.6489C385.196 80.1563 383.964 76.9087 383.964 72.9063C383.964 68.9039 385.196 66.1834 387.66 64.7448ZM389.113 74.0387C389.113 75.8191 389.747 77.3218 391.015 78.5467C392.268 79.7717 394.063 80.6334 396.399 81.1319C398.735 81.6305 400.536 81.5379 401.804 80.8542C403.072 80.1563 403.706 78.9171 403.706 77.1366C403.706 75.3562 403.072 73.8535 401.804 72.6286C400.536 71.4036 398.735 70.5419 396.399 70.0434C394.063 69.5448 392.268 69.6445 391.015 70.3425C389.747 71.0262 389.113 72.2582 389.113 74.0387Z" fill="black"/>
<path d="M95.332 53V40.04H103.684V41.084H96.556V45.764H103.036V46.808H96.556V53H95.332ZM106.432 53H105.352V43.676H106.432V45.422H106.468C106.768 44.678 107.152 44.162 107.62 43.874C108.1 43.574 108.73 43.424 109.51 43.424V44.594C108.898 44.582 108.394 44.678 107.998 44.882C107.602 45.086 107.284 45.362 107.044 45.71C106.816 46.058 106.654 46.472 106.558 46.952C106.474 47.42 106.432 47.912 106.432 48.428V53ZM114.684 53.252C114.084 53.24 113.52 53.132 112.992 52.928C112.476 52.724 112.02 52.418 111.624 52.01C111.24 51.602 110.934 51.092 110.706 50.48C110.478 49.868 110.364 49.154 110.364 48.338C110.364 47.654 110.454 47.018 110.634 46.43C110.814 45.83 111.084 45.308 111.444 44.864C111.804 44.42 112.254 44.072 112.794 43.82C113.334 43.556 113.964 43.424 114.684 43.424C115.416 43.424 116.052 43.556 116.592 43.82C117.132 44.072 117.582 44.42 117.942 44.864C118.302 45.296 118.566 45.812 118.734 46.412C118.914 47.012 119.004 47.654 119.004 48.338C119.004 49.082 118.902 49.754 118.698 50.354C118.494 50.954 118.2 51.47 117.816 51.902C117.444 52.334 116.988 52.67 116.448 52.91C115.92 53.138 115.332 53.252 114.684 53.252ZM117.852 48.338C117.852 47.786 117.792 47.27 117.672 46.79C117.552 46.31 117.366 45.896 117.114 45.548C116.862 45.188 116.538 44.906 116.142 44.702C115.746 44.498 115.26 44.396 114.684 44.396C114.12 44.396 113.634 44.51 113.226 44.738C112.83 44.954 112.506 45.248 112.254 45.62C112.002 45.98 111.816 46.4 111.696 46.88C111.576 47.348 111.516 47.834 111.516 48.338C111.516 48.914 111.582 49.448 111.714 49.94C111.858 50.42 112.062 50.834 112.326 51.182C112.59 51.53 112.92 51.8 113.316 51.992C113.712 52.184 114.168 52.28 114.684 52.28C115.248 52.28 115.728 52.172 116.124 51.956C116.532 51.728 116.862 51.428 117.114 51.056C117.366 50.684 117.552 50.264 117.672 49.796C117.792 49.328 117.852 48.842 117.852 48.338ZM122.058 53H120.978V43.676H122.058V44.972C122.49 44.516 122.934 44.144 123.39 43.856C123.858 43.568 124.416 43.424 125.064 43.424C125.64 43.424 126.174 43.526 126.666 43.73C127.158 43.922 127.572 44.264 127.908 44.756C128.136 45.092 128.268 45.44 128.304 45.8C128.352 46.148 128.376 46.514 128.376 46.898V53H127.296V46.916C127.296 46.076 127.11 45.446 126.738 45.026C126.366 44.606 125.748 44.396 124.884 44.396C124.548 44.396 124.242 44.45 123.966 44.558C123.69 44.654 123.438 44.786 123.21 44.954C122.994 45.122 122.808 45.314 122.652 45.53C122.496 45.746 122.376 45.974 122.292 46.214C122.184 46.514 122.118 46.802 122.094 47.078C122.07 47.354 122.058 47.654 122.058 47.978V53ZM134.256 53.036C134.124 53.06 133.95 53.102 133.734 53.162C133.518 53.222 133.278 53.252 133.014 53.252C132.474 53.252 132.06 53.12 131.772 52.856C131.496 52.58 131.358 52.094 131.358 51.398V44.576H130.044V43.676H131.358V41.084H132.438V43.676H134.184V44.576H132.438V50.966C132.438 51.194 132.444 51.392 132.456 51.56C132.468 51.728 132.504 51.866 132.564 51.974C132.624 52.082 132.714 52.16 132.834 52.208C132.966 52.256 133.146 52.28 133.374 52.28C133.518 52.28 133.662 52.268 133.806 52.244C133.962 52.22 134.112 52.19 134.256 52.154V53.036ZM142.739 47.69C142.739 47.234 142.673 46.808 142.541 46.412C142.421 46.004 142.235 45.656 141.983 45.368C141.743 45.068 141.437 44.834 141.065 44.666C140.693 44.486 140.267 44.396 139.787 44.396C139.307 44.396 138.881 44.486 138.509 44.666C138.149 44.846 137.837 45.086 137.573 45.386C137.321 45.686 137.117 46.034 136.961 46.43C136.805 46.826 136.703 47.246 136.655 47.69H142.739ZM136.655 48.59C136.655 49.094 136.721 49.574 136.853 50.03C136.985 50.474 137.177 50.864 137.429 51.2C137.693 51.524 138.023 51.788 138.419 51.992C138.815 52.184 139.271 52.28 139.787 52.28C140.495 52.28 141.101 52.094 141.605 51.722C142.109 51.35 142.445 50.822 142.613 50.138H143.819C143.687 50.582 143.513 50.996 143.297 51.38C143.081 51.752 142.811 52.082 142.487 52.37C142.163 52.646 141.779 52.862 141.335 53.018C140.891 53.174 140.375 53.252 139.787 53.252C139.043 53.252 138.401 53.126 137.861 52.874C137.321 52.622 136.877 52.28 136.529 51.848C136.181 51.404 135.923 50.888 135.755 50.3C135.587 49.7 135.503 49.058 135.503 48.374C135.503 47.69 135.599 47.048 135.791 46.448C135.995 45.848 136.277 45.326 136.637 44.882C137.009 44.426 137.459 44.072 137.987 43.82C138.515 43.556 139.115 43.424 139.787 43.424C141.071 43.424 142.079 43.868 142.811 44.756C143.543 45.632 143.903 46.91 143.891 48.59H136.655ZM147.071 53H145.991V43.676H147.071V44.972C147.503 44.516 147.947 44.144 148.403 43.856C148.871 43.568 149.429 43.424 150.077 43.424C150.653 43.424 151.187 43.526 151.679 43.73C152.171 43.922 152.585 44.264 152.921 44.756C153.149 45.092 153.281 45.44 153.317 45.8C153.365 46.148 153.389 46.514 153.389 46.898V53H152.309V46.916C152.309 46.076 152.123 45.446 151.751 45.026C151.379 44.606 150.761 44.396 149.897 44.396C149.561 44.396 149.255 44.45 148.979 44.558C148.703 44.654 148.451 44.786 148.223 44.954C148.007 45.122 147.821 45.314 147.665 45.53C147.509 45.746 147.389 45.974 147.305 46.214C147.197 46.514 147.131 46.802 147.107 47.078C147.083 47.354 147.071 47.654 147.071 47.978V53ZM163.193 48.302C163.193 47.774 163.121 47.276 162.977 46.808C162.833 46.328 162.623 45.914 162.347 45.566C162.083 45.206 161.753 44.924 161.357 44.72C160.973 44.504 160.535 44.396 160.043 44.396C159.479 44.396 158.993 44.51 158.585 44.738C158.177 44.954 157.841 45.254 157.577 45.638C157.313 46.022 157.121 46.472 157.001 46.988C156.881 47.492 156.833 48.038 156.857 48.626C156.857 49.214 156.935 49.736 157.091 50.192C157.259 50.636 157.487 51.014 157.775 51.326C158.063 51.638 158.399 51.878 158.783 52.046C159.167 52.202 159.587 52.28 160.043 52.28C160.547 52.28 160.997 52.178 161.393 51.974C161.789 51.77 162.119 51.494 162.383 51.146C162.647 50.786 162.845 50.366 162.977 49.886C163.121 49.394 163.193 48.866 163.193 48.302ZM163.193 40.04H164.273V53H163.193V51.362H163.157C163.001 51.674 162.797 51.95 162.545 52.19C162.305 52.418 162.035 52.61 161.735 52.766C161.447 52.922 161.147 53.042 160.835 53.126C160.523 53.21 160.217 53.252 159.917 53.252C159.161 53.252 158.519 53.126 157.991 52.874C157.463 52.622 157.025 52.28 156.677 51.848C156.341 51.404 156.095 50.882 155.939 50.282C155.783 49.682 155.705 49.04 155.705 48.356C155.705 47.708 155.789 47.084 155.957 46.484C156.125 45.884 156.377 45.362 156.713 44.918C157.061 44.462 157.493 44.102 158.009 43.838C158.537 43.562 159.155 43.424 159.863 43.424C160.523 43.424 161.153 43.574 161.753 43.874C162.365 44.162 162.845 44.594 163.193 45.17V40.04ZM179.207 48.302C179.207 47.774 179.135 47.276 178.991 46.808C178.847 46.328 178.637 45.914 178.361 45.566C178.097 45.206 177.767 44.924 177.371 44.72C176.987 44.504 176.549 44.396 176.057 44.396C175.493 44.396 175.007 44.51 174.599 44.738C174.191 44.954 173.855 45.254 173.591 45.638C173.327 46.022 173.135 46.472 173.015 46.988C172.895 47.492 172.847 48.038 172.871 48.626C172.871 49.214 172.949 49.736 173.105 50.192C173.273 50.636 173.501 51.014 173.789 51.326C174.077 51.638 174.413 51.878 174.797 52.046C175.181 52.202 175.601 52.28 176.057 52.28C176.561 52.28 177.011 52.178 177.407 51.974C177.803 51.77 178.133 51.494 178.397 51.146C178.661 50.786 178.859 50.366 178.991 49.886C179.135 49.394 179.207 48.866 179.207 48.302ZM179.207 40.04H180.287V53H179.207V51.362H179.171C179.015 51.674 178.811 51.95 178.559 52.19C178.319 52.418 178.049 52.61 177.749 52.766C177.461 52.922 177.161 53.042 176.849 53.126C176.537 53.21 176.231 53.252 175.931 53.252C175.175 53.252 174.533 53.126 174.005 52.874C173.477 52.622 173.039 52.28 172.691 51.848C172.355 51.404 172.109 50.882 171.953 50.282C171.797 49.682 171.719 49.04 171.719 48.356C171.719 47.708 171.803 47.084 171.971 46.484C172.139 45.884 172.391 45.362 172.727 44.918C173.075 44.462 173.507 44.102 174.023 43.838C174.551 43.562 175.169 43.424 175.877 43.424C176.537 43.424 177.167 43.574 177.767 43.874C178.379 44.162 178.859 44.594 179.207 45.17V40.04ZM189.761 47.69C189.761 47.234 189.695 46.808 189.563 46.412C189.443 46.004 189.257 45.656 189.005 45.368C188.765 45.068 188.459 44.834 188.087 44.666C187.715 44.486 187.289 44.396 186.809 44.396C186.329 44.396 185.903 44.486 185.531 44.666C185.171 44.846 184.859 45.086 184.595 45.386C184.343 45.686 184.139 46.034 183.983 46.43C183.827 46.826 183.725 47.246 183.677 47.69H189.761ZM183.677 48.59C183.677 49.094 183.743 49.574 183.875 50.03C184.007 50.474 184.199 50.864 184.451 51.2C184.715 51.524 185.045 51.788 185.441 51.992C185.837 52.184 186.293 52.28 186.809 52.28C187.517 52.28 188.123 52.094 188.627 51.722C189.131 51.35 189.467 50.822 189.635 50.138H190.841C190.709 50.582 190.535 50.996 190.319 51.38C190.103 51.752 189.833 52.082 189.509 52.37C189.185 52.646 188.801 52.862 188.357 53.018C187.913 53.174 187.397 53.252 186.809 53.252C186.065 53.252 185.423 53.126 184.883 52.874C184.343 52.622 183.899 52.28 183.551 51.848C183.203 51.404 182.945 50.888 182.777 50.3C182.609 49.7 182.525 49.058 182.525 48.374C182.525 47.69 182.621 47.048 182.813 46.448C183.017 45.848 183.299 45.326 183.659 44.882C184.031 44.426 184.481 44.072 185.009 43.82C185.537 43.556 186.137 43.424 186.809 43.424C188.093 43.424 189.101 43.868 189.833 44.756C190.565 45.632 190.925 46.91 190.913 48.59H183.677ZM192.023 43.676H193.193L196.217 51.668L199.241 43.676H200.411L196.793 53H195.587L192.023 43.676ZM208.763 47.69C208.763 47.234 208.697 46.808 208.565 46.412C208.445 46.004 208.259 45.656 208.007 45.368C207.767 45.068 207.461 44.834 207.089 44.666C206.717 44.486 206.291 44.396 205.811 44.396C205.331 44.396 204.905 44.486 204.533 44.666C204.173 44.846 203.861 45.086 203.597 45.386C203.345 45.686 203.141 46.034 202.985 46.43C202.829 46.826 202.727 47.246 202.679 47.69H208.763ZM202.679 48.59C202.679 49.094 202.745 49.574 202.877 50.03C203.009 50.474 203.201 50.864 203.453 51.2C203.717 51.524 204.047 51.788 204.443 51.992C204.839 52.184 205.295 52.28 205.811 52.28C206.519 52.28 207.125 52.094 207.629 51.722C208.133 51.35 208.469 50.822 208.637 50.138H209.843C209.711 50.582 209.537 50.996 209.321 51.38C209.105 51.752 208.835 52.082 208.511 52.37C208.187 52.646 207.803 52.862 207.359 53.018C206.915 53.174 206.399 53.252 205.811 53.252C205.067 53.252 204.425 53.126 203.885 52.874C203.345 52.622 202.901 52.28 202.553 51.848C202.205 51.404 201.947 50.888 201.779 50.3C201.611 49.7 201.527 49.058 201.527 48.374C201.527 47.69 201.623 47.048 201.815 46.448C202.019 45.848 202.301 45.326 202.661 44.882C203.033 44.426 203.483 44.072 204.011 43.82C204.539 43.556 205.139 43.424 205.811 43.424C207.095 43.424 208.103 43.868 208.835 44.756C209.567 45.632 209.927 46.91 209.915 48.59H202.679ZM212.177 53V40.04H213.257V53H212.177ZM219.713 53.252C219.113 53.24 218.549 53.132 218.021 52.928C217.505 52.724 217.049 52.418 216.653 52.01C216.269 51.602 215.963 51.092 215.735 50.48C215.507 49.868 215.393 49.154 215.393 48.338C215.393 47.654 215.483 47.018 215.663 46.43C215.843 45.83 216.113 45.308 216.473 44.864C216.833 44.42 217.283 44.072 217.823 43.82C218.363 43.556 218.993 43.424 219.713 43.424C220.445 43.424 221.081 43.556 221.621 43.82C222.161 44.072 222.611 44.42 222.971 44.864C223.331 45.296 223.595 45.812 223.763 46.412C223.943 47.012 224.033 47.654 224.033 48.338C224.033 49.082 223.931 49.754 223.727 50.354C223.523 50.954 223.229 51.47 222.845 51.902C222.473 52.334 222.017 52.67 221.477 52.91C220.949 53.138 220.361 53.252 219.713 53.252ZM222.881 48.338C222.881 47.786 222.821 47.27 222.701 46.79C222.581 46.31 222.395 45.896 222.143 45.548C221.891 45.188 221.567 44.906 221.171 44.702C220.775 44.498 220.289 44.396 219.713 44.396C219.149 44.396 218.663 44.51 218.255 44.738C217.859 44.954 217.535 45.248 217.283 45.62C217.031 45.98 216.845 46.4 216.725 46.88C216.605 47.348 216.545 47.834 216.545 48.338C216.545 48.914 216.611 49.448 216.743 49.94C216.887 50.42 217.091 50.834 217.355 51.182C217.619 51.53 217.949 51.8 218.345 51.992C218.741 52.184 219.197 52.28 219.713 52.28C220.277 52.28 220.757 52.172 221.153 51.956C221.561 51.728 221.891 51.428 222.143 51.056C222.395 50.684 222.581 50.264 222.701 49.796C222.821 49.328 222.881 48.842 222.881 48.338ZM227.213 48.374C227.213 48.902 227.285 49.406 227.429 49.886C227.573 50.354 227.777 50.768 228.041 51.128C228.317 51.476 228.647 51.758 229.031 51.974C229.427 52.178 229.871 52.28 230.363 52.28C230.915 52.28 231.395 52.172 231.803 51.956C232.223 51.728 232.565 51.422 232.829 51.038C233.093 50.654 233.285 50.21 233.405 49.706C233.525 49.19 233.573 48.638 233.549 48.05C233.549 47.462 233.465 46.946 233.297 46.502C233.141 46.046 232.919 45.662 232.631 45.35C232.343 45.038 232.007 44.804 231.623 44.648C231.239 44.48 230.819 44.396 230.363 44.396C229.859 44.396 229.409 44.498 229.013 44.702C228.617 44.906 228.287 45.188 228.023 45.548C227.759 45.896 227.555 46.316 227.411 46.808C227.279 47.288 227.213 47.81 227.213 48.374ZM227.213 56.672H226.133V43.676H227.213V45.314H227.249C227.405 45.014 227.603 44.744 227.843 44.504C228.095 44.264 228.365 44.066 228.653 43.91C228.953 43.754 229.259 43.634 229.571 43.55C229.883 43.466 230.189 43.424 230.489 43.424C231.245 43.424 231.887 43.55 232.415 43.802C232.943 44.054 233.375 44.402 233.711 44.846C234.059 45.278 234.311 45.794 234.467 46.394C234.623 46.994 234.701 47.636 234.701 48.32C234.701 48.968 234.617 49.592 234.449 50.192C234.281 50.792 234.023 51.32 233.675 51.776C233.339 52.22 232.907 52.58 232.379 52.856C231.863 53.12 231.251 53.252 230.543 53.252C229.883 53.252 229.247 53.108 228.635 52.82C228.035 52.52 227.561 52.082 227.213 51.506V56.672ZM243.761 47.69C243.761 47.234 243.695 46.808 243.563 46.412C243.443 46.004 243.257 45.656 243.005 45.368C242.765 45.068 242.459 44.834 242.087 44.666C241.715 44.486 241.289 44.396 240.809 44.396C240.329 44.396 239.903 44.486 239.531 44.666C239.171 44.846 238.859 45.086 238.595 45.386C238.343 45.686 238.139 46.034 237.983 46.43C237.827 46.826 237.725 47.246 237.677 47.69H243.761ZM237.677 48.59C237.677 49.094 237.743 49.574 237.875 50.03C238.007 50.474 238.199 50.864 238.451 51.2C238.715 51.524 239.045 51.788 239.441 51.992C239.837 52.184 240.293 52.28 240.809 52.28C241.517 52.28 242.123 52.094 242.627 51.722C243.131 51.35 243.467 50.822 243.635 50.138H244.841C244.709 50.582 244.535 50.996 244.319 51.38C244.103 51.752 243.833 52.082 243.509 52.37C243.185 52.646 242.801 52.862 242.357 53.018C241.913 53.174 241.397 53.252 240.809 53.252C240.065 53.252 239.423 53.126 238.883 52.874C238.343 52.622 237.899 52.28 237.551 51.848C237.203 51.404 236.945 50.888 236.777 50.3C236.609 49.7 236.525 49.058 236.525 48.374C236.525 47.69 236.621 47.048 236.813 46.448C237.017 45.848 237.299 45.326 237.659 44.882C238.031 44.426 238.481 44.072 239.009 43.82C239.537 43.556 240.137 43.424 240.809 43.424C242.093 43.424 243.101 43.868 243.833 44.756C244.565 45.632 244.925 46.91 244.913 48.59H237.677ZM248.147 53H247.067V43.676H248.147V45.422H248.183C248.483 44.678 248.867 44.162 249.335 43.874C249.815 43.574 250.445 43.424 251.225 43.424V44.594C250.613 44.582 250.109 44.678 249.713 44.882C249.317 45.086 248.999 45.362 248.759 45.71C248.531 46.058 248.369 46.472 248.273 46.952C248.189 47.42 248.147 47.912 248.147 48.428V53ZM253.209 53.54C253.209 54.068 253.083 54.488 252.831 54.8C252.591 55.124 252.279 55.346 251.895 55.466V54.8C252.039 54.704 252.177 54.572 252.309 54.404C252.441 54.236 252.507 53.972 252.507 53.612V53H251.895V51.416H253.209V53.54ZM262.742 43.676V54.242C262.742 54.638 262.724 54.986 262.688 55.286C262.652 55.586 262.568 55.838 262.436 56.042C262.316 56.258 262.13 56.414 261.878 56.51C261.638 56.618 261.302 56.672 260.87 56.672C260.606 56.672 260.372 56.648 260.168 56.6V55.646C260.48 55.682 260.732 55.682 260.924 55.646C261.116 55.622 261.266 55.556 261.374 55.448C261.482 55.34 261.554 55.196 261.59 55.016C261.638 54.836 261.662 54.626 261.662 54.386V43.676H262.742ZM262.796 41.642H261.608V40.04H262.796V41.642ZM266.498 53H265.418V43.676H266.498V45.422H266.534C266.834 44.678 267.218 44.162 267.686 43.874C268.166 43.574 268.796 43.424 269.576 43.424V44.594C268.964 44.582 268.46 44.678 268.064 44.882C267.668 45.086 267.35 45.362 267.11 45.71C266.882 46.058 266.72 46.472 266.624 46.952C266.54 47.42 266.498 47.912 266.498 48.428V53ZM270.246 53V51.416H271.56V53H270.246Z" fill="black"/>
</svg>
